<?xml version="1.0" standalone="no"?>
<!DOCTYPE svg PUBLIC "-//W3C//DTD SVG 20010904//EN"
 "http://www.w3.org/TR/2001/REC-SVG-20010904/DTD/svg10.dtd">
<svg version="1.0" xmlns="http://www.w3.org/2000/svg"
 width="1351.000000pt" height="1351.000000pt" viewBox="0 0 1351.000000 1351.000000"
 preserveAspectRatio="xMidYMid meet">
<metadata>
Created by potrace 1.14, written by Peter Selinger 2001-2017
</metadata>
<g transform="translate(0.000000,1351.000000) scale(0.100000,-0.100000)"
fill="#000000" stroke="none">
<path d="M5310 6755 l0 -3375 140 0 140 0 0 3375 0 3375 -140 0 -140 0 0
-3375z"/>
<path d="M9870 8724 c0 -403 3 -734 8 -735 10 -1 184 -1 200 0 9 1 12 155 12
736 l0 735 -110 -1 -110 0 0 -735z"/>
<path d="M10374 9401 c-62 -38 -82 -131 -41 -192 62 -93 194 -84 241 15 21 45
20 79 -5 127 -33 66 -129 90 -195 50z"/>
<path d="M6960 8694 c0 -387 3 -704 8 -705 10 -1 173 -1 195 0 16 1 17 19 17
229 l1 227 37 -40 c20 -22 64 -71 97 -109 33 -38 65 -74 71 -80 5 -6 50 -56
98 -111 49 -55 92 -104 96 -109 9 -9 246 -15 260 -6 5 3 -8 23 -28 45 -21 22
-91 101 -157 175 -125 141 -159 179 -219 244 -20 22 -36 43 -36 46 0 4 9 18
21 31 23 27 155 174 179 199 8 9 51 56 95 106 44 49 92 102 107 119 16 16 28
32 28 35 0 3 -59 6 -130 5 l-131 0 -32 -35 c-18 -19 -91 -102 -162 -185 -72
-82 -145 -165 -162 -185 l-33 -34 0 421 0 422 -110 0 -110 -1 0 -704z"/>
<path d="M11010 9245 l-105 -31 -1 -100 c0 -55 -3 -105 -7 -110 -3 -6 -42 -10
-87 -9 -65 1 -83 -2 -88 -14 -6 -13 -7 -107 -3 -183 1 -14 13 -17 86 -16 47 1
87 -1 91 -4 3 -3 7 -136 9 -295 1 -177 7 -302 14 -324 20 -64 68 -119 129
-147 53 -25 67 -27 187 -27 l130 0 3 100 3 100 -76 -2 c-84 -2 -124 8 -152 39
-16 18 -18 43 -19 289 l-2 269 117 1 c64 1 119 1 124 0 4 0 7 48 7 107 l0 108
-120 -1 c-101 -1 -120 1 -124 14 -3 9 -4 67 -3 129 1 62 0 118 -3 125 -4 10
-32 5 -110 -18z"/>
<path d="M8231 9004 c-175 -47 -328 -216 -362 -400 -10 -54 -8 -202 4 -249 22
-89 65 -165 133 -237 124 -132 295 -184 467 -144 89 21 135 45 191 101 l46 47
1 -29 c1 -15 0 -45 -1 -65 -1 -28 3 -38 14 -39 21 -1 182 -1 199 0 9 1 12 104
10 483 -1 266 -2 492 -2 503 -1 20 -7 21 -108 20 -122 -1 -110 9 -112 -93 l-1
-42 -34 38 c-41 45 -118 89 -190 108 -66 18 -186 17 -255 -2z m300 -221 c66
-30 132 -101 159 -173 19 -50 22 -74 18 -138 -8 -126 -64 -213 -173 -270 -43
-23 -62 -26 -140 -26 -78 0 -97 3 -141 26 -118 62 -181 177 -171 312 9 136 82
235 207 280 61 22 179 17 241 -11z"/>
<path d="M9620 9004 c-78 -16 -144 -59 -188 -122 l-31 -45 1 69 c0 38 0 74 -1
79 -1 9 -145 13 -207 6 -17 -2 -17 -1001 -1 -1002 70 -5 200 -2 204 5 3 5 7
140 8 300 1 304 2 312 48 379 38 56 145 104 225 102 36 -1 33 -12 34 130 0
110 0 112 -15 112 -7 0 -41 -6 -77 -13z"/>
<path d="M11877 9010 c-142 -36 -269 -131 -343 -257 -14 -24 -34 -77 -44 -120
-50 -193 -2 -379 130 -512 100 -101 205 -149 344 -158 150 -9 285 36 391 130
115 102 174 231 175 380 1 140 -18 210 -80 304 -51 77 -56 82 -121 134 -88 72
-172 101 -304 105 -60 2 -127 -1 -148 -6z m256 -233 c89 -42 142 -105 169
-202 25 -90 5 -201 -50 -273 -44 -58 -53 -66 -121 -99 -79 -38 -183 -37 -265
3 -117 57 -181 169 -174 304 5 86 30 144 87 203 89 94 233 120 354 64z"/>
<path d="M10345 8991 c-3 -2 -5 -229 -5 -503 0 -391 3 -498 13 -499 6 0 55 -1
107 -2 l95 -1 0 505 0 504 -103 0 c-57 1 -105 -1 -107 -4z"/>
<path d="M2000 8130 c-24 -27 -47 -47 -51 -45 -3 3 -11 -7 -17 -20 -7 -14 -18
-25 -27 -25 -8 0 -15 -4 -15 -10 0 -5 -9 -19 -20 -30 -11 -11 -20 -18 -20 -16
0 2 -36 -32 -79 -74 -44 -43 -82 -76 -85 -72 -3 3 -6 0 -6 -7 0 -14 -48 -61
-62 -61 -5 0 -7 -3 -5 -7 2 -5 -7 -18 -20 -30 -13 -12 -23 -21 -23 -19 0 2
-40 -36 -89 -84 -50 -48 -92 -85 -95 -82 -3 3 -6 0 -6 -7 0 -16 -26 -42 -34
-34 -3 4 -6 -1 -6 -10 0 -9 -6 -17 -14 -17 -8 0 -18 -9 -21 -21 -4 -11 -9 -18
-11 -16 -3 3 -34 -24 -68 -59 -35 -35 -69 -64 -76 -64 -8 0 -11 -3 -8 -6 7 -6
-101 -114 -114 -114 -4 0 -8 -7 -8 -16 0 -8 -4 -13 -9 -10 -9 6 -21 -15 -28
-47 -2 -10 1 -16 7 -12 7 4 7 -3 0 -20 -13 -34 -13 -38 2 -29 7 5 8 3 2 -7
-12 -20 -16 -51 -5 -44 6 3 6 -6 1 -25 -5 -18 -5 -32 1 -36 5 -3 6 -11 2 -17
-12 -19 -14 -49 -4 -42 6 3 6 -6 1 -25 -5 -18 -5 -32 1 -36 5 -3 6 -10 2 -17
-10 -16 -10 -58 -1 -63 5 -3 5 -11 1 -17 -12 -19 -14 -49 -4 -42 6 3 6 -6 1
-25 -5 -18 -5 -32 1 -36 5 -3 6 -11 2 -17 -12 -19 -14 -49 -4 -42 6 3 6 -6 1
-25 -5 -18 -5 -32 1 -36 5 -3 6 -10 3 -16 -11 -18 -12 -78 -1 -71 6 4 7 1 1
-8 -13 -22 -16 -51 -3 -43 8 4 8 0 0 -15 -7 -12 -8 -21 -2 -21 5 0 55 -45 111
-100 55 -55 105 -100 111 -100 6 0 8 -4 5 -8 -2 -4 9 -17 25 -27 16 -11 29
-26 29 -32 0 -7 4 -13 8 -13 4 0 64 -54 133 -120 68 -66 127 -120 132 -120 4
0 7 -7 7 -15 0 -8 4 -15 10 -15 5 0 52 -42 104 -94 52 -52 97 -91 100 -88 3 3
6 -2 6 -11 0 -8 9 -19 20 -22 11 -3 20 -13 20 -21 0 -8 5 -14 10 -14 15 0 60
-47 53 -54 -4 -3 -1 -6 5 -6 6 0 45 -33 86 -73 l75 -74 383 1 383 1 113 111
c61 62 112 111 112 109 0 -1 51 48 114 109 62 61 134 130 159 153 25 23 42 44
39 47 -3 3 0 6 6 6 6 0 42 32 81 70 39 39 76 70 81 70 6 0 9 6 8 13 -2 6 3 11
10 9 6 -1 12 4 12 10 0 7 18 26 40 42 22 17 40 36 40 43 0 7 4 13 9 13 5 0 48
38 96 84 47 47 88 85 90 85 3 1 5 4 4 7 0 3 7 11 17 18 18 14 29 80 11 69 -5
-3 -7 -2 -4 4 11 18 16 103 5 97 -6 -4 -5 2 1 14 14 26 14 35 0 26 -8 -5 -8
-1 0 14 14 26 14 35 0 26 -8 -5 -8 -1 0 14 14 26 14 35 0 26 -8 -5 -8 -1 0 14
14 26 14 35 0 26 -8 -5 -8 -1 0 14 14 26 14 35 0 26 -8 -5 -8 -1 0 14 14 26
14 35 0 26 -8 -5 -8 -1 0 14 14 26 14 35 0 26 -8 -5 -8 -1 0 14 14 26 14 35 0
26 -8 -5 -8 -1 0 14 6 11 11 23 11 27 0 3 -5 3 -11 -1 -8 -5 -8 -1 0 14 14 26
14 35 0 26 -8 -5 -8 -1 0 14 14 26 14 35 0 26 -8 -5 -8 -1 0 14 14 26 14 35 0
26 -8 -5 -8 -1 0 14 14 26 14 35 0 26 -8 -5 -8 -1 0 14 14 26 14 35 0 26 -8
-4 -8 0 0 15 8 15 9 21 1 21 -6 0 -8 5 -5 10 4 6 12 7 18 3 7 -4 7 0 -1 10 -8
9 -11 21 -7 27 4 7 -1 6 -13 -1 -12 -7 -20 -15 -18 -16 5 -5 -199 -208 -206
-205 -5 2 -8 -1 -8 -6 0 -8 -50 -61 -82 -88 -7 -5 -24 -23 -38 -40 -14 -16
-38 -39 -54 -52 -16 -12 -26 -22 -24 -22 3 0 -21 -27 -54 -60 -33 -33 -64 -60
-69 -60 -5 0 -9 -6 -9 -14 0 -8 -9 -18 -20 -21 -11 -3 -20 -10 -20 -14 0 -12
-99 -109 -105 -103 -3 3 -5 1 -5 -5 0 -5 -16 -25 -35 -44 -53 -52 -55 -55 -87
-88 -16 -17 -34 -31 -39 -31 -5 0 -9 -6 -9 -14 0 -8 -9 -17 -19 -21 -11 -3
-22 -14 -25 -23 -3 -9 -19 -26 -35 -37 -17 -11 -29 -21 -27 -22 4 -5 -217
-223 -226 -223 -4 0 -8 -4 -8 -8 0 -5 -43 -52 -97 -105 l-96 -96 -29 16 c-15
10 -28 20 -28 24 0 4 -36 42 -81 85 -113 111 -139 138 -139 147 0 5 -4 6 -9 2
-5 -3 -12 4 -16 15 -3 11 -13 20 -21 20 -8 0 -14 6 -14 14 0 8 -9 18 -20 21
-11 3 -20 10 -20 15 0 11 -68 79 -74 73 -2 -3 -7 5 -11 16 -3 12 -13 21 -21
21 -8 0 -14 6 -14 14 0 8 -9 18 -20 21 -11 3 -20 10 -20 14 0 12 -80 91 -91
91 -5 0 -9 7 -9 16 0 8 -4 13 -8 10 -5 -3 -15 6 -22 19 -7 14 -20 27 -29 30
-9 3 -27 21 -41 39 -14 19 -28 32 -32 30 -4 -2 -9 5 -13 16 -3 11 -13 20 -21
20 -8 0 -14 6 -14 13 0 6 -14 21 -30 32 -16 11 -30 23 -30 26 0 7 -76 85 -124
127 l-35 30 339 340 c187 187 342 337 345 334 3 -3 5 -1 5 5 0 14 168 182 175
175 3 -3 5 0 5 6 0 14 78 92 91 92 5 0 8 6 7 13 -2 6 3 11 10 9 6 -1 12 3 12
9 0 14 108 118 115 111 3 -3 5 0 5 6 0 15 97 111 105 104 3 -3 5 0 5 6 0 14
57 71 65 64 3 -3 5 0 5 6 0 12 86 102 96 102 3 0 12 7 20 15 9 9 11 15 4 15
-6 0 -8 5 -5 10 7 11 -23 9 -42 -3 -6 -4 -14 -3 -17 2 -7 11 -45 9 -65 -4 -10
-5 -12 -4 -7 3 4 7 1 12 -9 12 -10 0 -14 -5 -9 -12 6 -10 4 -10 -7 0 -7 6 -22
12 -33 12 -17 0 -18 -2 -6 -10 8 -5 10 -10 4 -10 -6 0 -14 3 -17 7 -4 3 -24 8
-45 10 -27 2 -33 1 -22 -7 8 -5 10 -10 4 -10 -6 0 -14 3 -17 7 -4 3 -27 8 -52
10 -33 2 -44 0 -39 -9 5 -7 3 -8 -7 -2 -19 12 -41 11 -58 -1 -11 -7 -13 -7 -7
3 4 7 1 12 -9 12 -10 0 -14 -5 -9 -12 6 -10 4 -10 -7 0 -7 6 -22 12 -33 12
-17 0 -18 -2 -6 -10 8 -5 10 -10 4 -10 -6 0 -14 3 -17 7 -4 3 -24 8 -45 10
-27 2 -33 1 -22 -7 8 -5 10 -10 4 -10 -6 0 -14 3 -17 7 -4 3 -27 8 -52 10 -35
2 -44 0 -39 -10 5 -9 4 -9 -7 1 -7 6 -17 12 -22 12 -4 0 -5 -6 -1 -12 6 -10 5
-10 -7 -1 -12 10 -23 3 -59 -37z"/>
<path d="M3868 7735 c-3 -3 -20 -7 -39 -9 -19 -2 -50 -10 -69 -17 -19 -7 -39
-12 -45 -10 -5 1 -7 -1 -3 -5 4 -4 -6 -17 -22 -29 -16 -12 -27 -25 -23 -28 3
-4 -2 -9 -11 -13 -9 -3 -16 -15 -16 -25 0 -10 -4 -19 -10 -19 -5 0 -9 -3 -9
-7 1 -5 0 -10 -1 -13 -7 -17 -6 -120 1 -120 5 0 8 -3 7 -7 -1 -5 4 -24 11 -43
8 -19 13 -39 12 -45 -2 -5 0 -7 4 -3 4 4 20 -7 36 -23 15 -16 35 -29 44 -29 8
0 15 -5 15 -11 0 -5 5 -7 10 -4 6 3 10 2 10 -3 0 -10 4 -10 70 -16 25 -2 51 1
58 7 6 5 12 7 12 3 0 -9 80 33 99 52 31 30 60 75 55 83 -3 5 -1 9 4 9 12 0 12
140 -1 170 -6 14 -9 29 -9 33 1 4 -5 10 -13 13 -8 4 -15 12 -15 20 0 8 -4 14
-10 14 -5 0 -19 9 -30 20 -11 11 -27 20 -35 20 -8 0 -15 5 -15 11 0 6 -7 9
-15 5 -8 -3 -15 -1 -15 3 0 5 -10 7 -22 3 -14 -3 -19 -2 -14 6 7 12 4 16 -6 7z"/>
<path d="M7063 7653 c-26 -5 -72 -49 -84 -81 -33 -85 25 -180 114 -189 84 -8
152 53 152 136 -1 99 -76 155 -182 134z"/>
<path d="M7824 7246 c-147 -34 -283 -138 -351 -268 -55 -105 -74 -246 -49
-366 42 -197 215 -368 413 -407 45 -9 198 -6 224 4 13 5 27 9 32 10 142 19
327 199 364 354 17 73 20 105 17 181 -8 220 -146 406 -353 476 -80 27 -216 34
-297 16z m182 -209 c194 -28 306 -260 219 -453 -24 -52 -84 -112 -138 -138
-220 -106 -462 51 -452 294 6 155 114 278 261 298 32 5 64 7 69 6 6 -2 24 -5
41 -7z"/>
<path d="M8895 7250 c-108 -22 -208 -96 -245 -182 -30 -70 -31 -165 -3 -228
41 -92 98 -129 288 -186 106 -32 187 -68 211 -95 9 -11 17 -35 17 -54 0 -134
-276 -144 -359 -13 -16 24 -29 45 -31 47 -5 8 -183 -102 -183 -113 0 -17 55
-93 89 -122 139 -123 403 -141 575 -40 52 31 101 89 121 145 21 59 14 176 -12
226 -45 84 -96 120 -228 159 -221 67 -285 103 -285 160 0 44 21 70 75 91 88
33 214 -8 247 -80 l11 -24 56 32 c31 17 73 41 94 54 l38 24 -22 32 c-47 68
-123 124 -205 152 -55 19 -188 27 -249 15z"/>
<path d="M9902 7244 c-232 -47 -396 -249 -405 -499 -9 -255 145 -465 390 -530
65 -18 219 -20 287 -5 115 26 213 83 279 164 l36 44 -82 48 c-45 27 -86 51
-90 53 -5 1 -24 -13 -44 -33 -63 -63 -114 -81 -228 -81 -87 0 -107 3 -155 26
-30 15 -69 41 -86 58 -35 34 -78 117 -71 135 3 8 111 11 392 11 212 0 391 3
397 6 18 11 13 166 -7 239 -23 85 -65 158 -131 229 -116 126 -289 174 -482
135z m249 -213 c78 -37 136 -107 153 -187 l7 -31 -291 0 c-326 0 -307 -6 -269
77 50 111 154 170 289 165 42 -2 82 -10 111 -24z"/>
<path d="M7002 7226 c-3 -5 -6 -259 -6 -565 -1 -592 0 -581 -49 -624 -24 -21
-58 -30 -108 -31 l-36 -1 0 -106 0 -107 71 3 c165 6 265 69 317 202 23 58 23
59 25 646 2 542 1 587 -14 588 -97 5 -195 2 -200 -5z"/>
<path d="M8225 5165 l0 -705 112 0 111 0 1 306 c0 344 6 385 66 447 51 53 99
71 185 71 58 0 85 -5 118 -22 46 -24 91 -85 100 -136 3 -17 6 -174 6 -348 l1
-318 110 0 110 0 -1 333 c0 182 -4 357 -8 387 -23 153 -146 283 -294 307 -138
22 -263 -9 -343 -86 l-49 -47 0 40 c-1 23 -1 139 -1 259 l1 217 -113 0 -112 0
0 -705z"/>
<path d="M10800 5730 c-30 -11 -76 -24 -102 -30 l-48 -12 1 -105 c0 -58 -2
-108 -6 -111 -3 -3 -44 -5 -90 -5 -72 1 -85 -2 -86 -16 -4 -130 -2 -191 6
-192 6 0 47 0 93 0 l82 1 0 -162 c0 -307 6 -420 25 -476 30 -87 98 -142 202
-161 63 -12 233 -7 241 6 5 9 7 157 3 183 -1 3 -41 6 -90 7 -102 2 -134 16
-150 66 -5 18 -9 145 -9 284 l1 252 119 -1 c65 0 121 2 125 5 5 5 8 149 4 193
-1 7 -36 11 -103 12 -57 0 -113 1 -124 1 -21 1 -22 6 -22 124 -1 157 -1 157
-9 156 -5 0 -33 -9 -63 -19z"/>
<path d="M7455 5489 c-100 -15 -186 -58 -243 -123 l-32 -37 0 69 0 70 -110 -1
-110 0 0 -704 0 -703 23 -1 c30 -1 136 -1 170 0 l27 1 0 267 0 267 48 -46 c76
-74 156 -106 279 -112 179 -7 329 69 434 221 109 157 121 379 32 562 -32 65
-117 158 -181 199 -95 61 -224 88 -337 71z m145 -221 c77 -25 139 -80 183
-162 29 -55 34 -195 9 -262 -39 -108 -153 -190 -274 -198 -139 -8 -247 55
-309 181 -34 67 -34 207 -2 273 74 151 234 219 393 168z"/>
<path d="M9738 5483 c-173 -35 -328 -170 -390 -340 -28 -76 -34 -233 -12 -318
99 -385 601 -522 888 -241 107 104 157 221 158 371 1 126 -29 225 -96 320
-123 171 -335 252 -548 208z m243 -230 c234 -105 245 -443 18 -568 -49 -27
-62 -30 -149 -30 -110 0 -151 16 -221 87 -65 66 -84 116 -84 223 0 73 4 98 22
135 39 77 104 137 179 164 57 21 178 15 235 -11z"/>
<path d="M11687 5494 c-1 -2 -18 -6 -37 -9 -183 -31 -344 -172 -406 -355 -29
-84 -26 -265 4 -344 40 -104 86 -168 172 -237 93 -75 194 -111 317 -112 133
-1 218 21 306 81 185 124 265 309 234 537 -29 209 -214 398 -422 431 -42 6
-164 12 -168 8z m157 -228 c178 -52 271 -260 192 -431 -33 -73 -75 -118 -141
-153 -43 -23 -62 -27 -140 -27 -106 0 -156 19 -221 82 -67 65 -89 122 -89 228
0 73 4 98 23 135 71 144 223 210 376 166z"/>
</g>
</svg>
